<?xml version="1.0" standalone="no"?>
<!DOCTYPE svg PUBLIC "-//W3C//DTD SVG 20010904//EN"
 "http://www.w3.org/TR/2001/REC-SVG-20010904/DTD/svg10.dtd">
<svg version="1.0" xmlns="http://www.w3.org/2000/svg"
 width="153.6000000pt" height="204.9000000pt" viewBox="0 0 1536.000000 2049.000000"
 preserveAspectRatio="xMidYMid meet">

<g transform="translate(0.000000,2049.000000) scale(0.100000,-0.100000)"
fill="#000000" stroke="none">
<path d="M9800 18773 c0 -901 -3 -1736 -7 -1855 l-6 -218 235 0 235 0 7 46 c3
26 6 99 7 163 0 64 3 133 7 155 l7 38 38 -54 c82 -120 241 -246 386 -308 173
-74 426 -100 632 -65 307 51 547 191 729 427 190 245 270 540 270 997 0 412
-76 696 -247 926 -214 287 -511 425 -912 425 -232 0 -408 -41 -568 -131 -90
-51 -232 -187 -278 -267 -16 -28 -33 -52 -37 -52 -5 0 -8 317 -8 705 l0 705
-245 0 -245 0 0 -1637z m1507 304 c96 -33 156 -69 227 -136 186 -176 285 -478
286 -870 0 -382 -95 -669 -284 -856 -132 -130 -258 -183 -457 -192 -146 -7
-252 12 -368 68 -153 72 -285 232 -351 424 -79 228 -96 617 -41 900 74 384
263 611 566 681 41 9 106 13 205 10 124 -3 156 -7 217 -29z"/>
<path d="M13928 19401 c-283 -62 -502 -200 -643 -405 l-40 -59 -6 154 c-4 85
-7 184 -8 222 l-1 67 -251 0 -251 0 9 -32 c4 -18 7 -853 5 -1855 l-3 -1823
245 0 246 0 0 660 c0 363 4 660 8 660 4 0 16 -13 25 -29 30 -51 117 -140 183
-187 287 -205 736 -239 1107 -84 174 72 368 232 474 390 130 195 203 398 239
670 23 174 15 517 -15 679 -96 511 -367 838 -793 957 -80 22 -118 27 -268 30
-145 3 -190 1 -262 -15z m299 -372 c277 -70 454 -304 507 -670 55 -385 5 -766
-137 -1044 -123 -240 -327 -357 -622 -358 -229 0 -382 57 -517 193 -63 64 -85
96 -127 182 -91 187 -128 415 -118 723 16 456 135 734 384 893 158 101 419
135 630 81z"/>
<path d="M7552 15303 c-335 -471 -608 -947 -838 -1463 l-82 -185 57 -60 c314
-330 688 -851 926 -1287 l58 -108 60 113 c214 403 554 885 885 1254 51 56 92
107 92 112 0 15 -134 309 -211 462 -197 395 -490 873 -751 1227 l-76 104 -120
-169z"/>
<path d="M10270 14977 c-335 -227 -649 -467 -925 -708 -183 -160 -427 -392
-532 -507 l-93 -100 54 -133 c123 -308 213 -587 292 -904 44 -179 106 -488
119 -596 11 -91 13 -91 116 2 337 302 763 599 1229 856 l140 77 0 45 c0 78
-29 386 -56 596 -57 444 -170 978 -292 1381 -7 22 -8 22 -52 -9z"/>
<path d="M5037 14993 c-3 -5 -21 -64 -40 -133 -120 -421 -214 -889 -267 -1320
-21 -178 -50 -492 -50 -551 l0 -37 152 -82 c421 -227 842 -514 1178 -804 74
-63 138 -116 143 -116 4 0 7 11 7 24 0 43 58 370 95 534 72 323 200 740 314
1022 28 69 51 130 51 136 0 6 -87 98 -193 205 -303 305 -573 540 -912 794
-231 173 -472 338 -478 328z"/>
<path d="M2724 13593 c34 -405 61 -630 112 -923 56 -328 139 -686 223 -960 16
-52 27 -97 25 -99 -1 -2 -67 4 -146 13 -79 8 -208 21 -288 28 -193 17 -992 17
-1200 0 -207 -17 -443 -42 -448 -47 -6 -6 71 -178 177 -400 210 -434 490 -900
769 -1276 l93 -125 82 17 c208 46 583 102 854 129 180 17 584 33 714 27 l127
-5 -99 166 c-174 292 -351 658 -484 997 -56 143 -165 448 -165 462 0 17 405
-48 695 -112 322 -71 681 -180 944 -286 52 -21 97 -37 98 -35 1 1 -2 18 -7 37
-21 75 -80 455 -99 634 -32 300 -41 474 -41 811 l0 314 -77 39 c-331 166 -816
362 -1173 474 -252 80 -644 187 -680 187 -8 0 -9 -21 -6 -67z"/>
<path d="M12445 13619 c-602 -159 -1136 -355 -1605 -588 l-165 -82 3 -317 c5
-502 -28 -887 -114 -1326 -14 -71 -23 -130 -21 -132 2 -2 30 7 63 20 435 176
1024 333 1524 406 79 11 145 22 146 23 0 1 24 83 52 182 148 516 247 1082 292
1654 14 188 14 201 -7 200 -10 0 -85 -18 -168 -40z"/>
<path d="M13050 11670 c-216 -8 -464 -27 -675 -51 l-100 -11 -58 -177 c-146
-446 -374 -944 -607 -1328 -39 -63 -70 -115 -70 -116 0 -1 138 -3 308 -3 442
-2 849 -43 1280 -129 95 -19 177 -35 182 -35 17 0 260 347 412 590 217 348
474 831 618 1166 l18 41 -176 16 c-387 37 -777 49 -1132 37z"/>
<path d="M13218 9676 c-320 -399 -718 -803 -1047 -1062 -55 -43 -100 -82 -101
-85 0 -4 12 -10 27 -14 57 -14 345 -120 497 -183 291 -120 771 -368 1025 -530
l65 -41 152 104 c278 189 552 402 809 626 129 112 625 596 625 609 0 8 -247
127 -430 207 -436 192 -976 373 -1416 476 l-101 24 -105 -131z"/>
<path d="M1845 9754 c-571 -150 -1075 -334 -1619 -593 l-148 -71 101 -107
c277 -294 708 -670 1076 -939 118 -86 411 -284 420 -284 4 0 57 31 118 68 444
272 988 529 1402 662 39 13 73 25 77 27 4 2 -37 40 -93 84 -355 283 -738 670
-1052 1062 -60 75 -110 137 -111 136 -1 0 -77 -20 -171 -45z"/>
<path d="M13560 7682 c-409 -255 -920 -500 -1356 -649 l-137 -46 25 -21 c13
-12 85 -71 159 -132 339 -281 678 -628 972 -996 56 -71 107 -128 114 -128 22
0 383 99 551 151 409 127 870 309 1237 487 l160 78 -190 190 c-300 301 -577
543 -890 778 -196 148 -504 356 -524 355 -9 -1 -63 -30 -121 -67z"/>
<path d="M1615 7708 c-138 -87 -424 -295 -620 -452 -256 -205 -627 -544 -805
-736 l-101 -109 113 -57 c271 -136 657 -296 993 -411 261 -89 828 -246 839
-232 54 71 237 294 315 384 248 284 692 707 905 861 l28 21 -138 47 c-464 160
-970 401 -1382 658 -51 32 -94 58 -95 58 -1 0 -24 -14 -52 -32z"/>
<path d="M13195 5679 c-136 -31 -481 -87 -675 -108 -259 -29 -425 -40 -727
-47 -145 -4 -263 -8 -263 -10 0 -1 34 -60 77 -131 237 -399 449 -859 607
-1322 31 -90 55 -165 54 -167 -5 -4 -263 36 -453 71 -416 78 -841 198 -1199
339 -85 34 -88 34 -82 13 32 -117 96 -546 121 -817 17 -182 32 -829 21 -904
l-7 -47 -127 67 c-435 230 -913 557 -1260 863 -50 45 -93 81 -95 81 -2 0 -9
-39 -16 -87 -40 -275 -137 -692 -233 -1003 -79 -256 -216 -622 -234 -626 -19
-5 -324 355 -495 583 -183 244 -435 639 -520 816 -13 26 -26 47 -29 47 -3 0
-23 -33 -45 -72 -214 -400 -530 -849 -887 -1262 l-95 -109 51 -116 c136 -312
368 -748 568 -1070 140 -225 413 -621 428 -621 8 0 161 215 277 390 268 402
499 822 683 1240 40 91 75 167 76 169 2 2 91 -83 196 -191 297 -300 565 -535
885 -776 221 -166 519 -370 527 -361 6 8 107 379 136 503 106 447 187 989 216
1438 3 60 8 108 10 108 3 0 58 -27 125 -60 477 -240 1104 -468 1687 -615 79
-20 145 -35 147 -33 5 7 -27 366 -50 558 -57 463 -156 950 -276 1349 -22 73
-39 135 -37 137 2 2 33 -1 68 -6 142 -20 421 -40 683 -51 374 -14 720 -1 1234
47 39 4 76 10 83 14 15 9 -62 184 -212 485 -217 434 -458 829 -733 1201 -95
128 -83 123 -210 93z"/>
<path d="M1961 5581 c-317 -430 -694 -1084 -926 -1609 -34 -75 -32 -77 64 -86
36 -3 140 -13 231 -22 227 -21 907 -30 1170 -15 208 12 509 37 545 46 16 4 31
40 78 182 144 442 354 902 593 1302 l81 136 -341 6 c-491 9 -880 52 -1329 148
l-87 18 -79 -106z"/>
<path d="M4725 4308 c-395 -165 -976 -320 -1493 -399 l-152 -23 -26 -81 c-102
-323 -213 -841 -268 -1255 -34 -253 -73 -700 -61 -700 13 0 257 63 405 105
463 131 927 305 1330 501 l195 95 -3 242 c-8 467 34 954 119 1391 15 83 27
151 26 152 -1 0 -33 -12 -72 -28z"/>
<path d="M6035 3473 c-368 -320 -802 -617 -1257 -862 -115 -62 -106 -28 -83
-318 34 -411 92 -788 191 -1218 43 -189 146 -565 155 -565 4 0 76 48 160 106
465 322 829 624 1206 1000 l212 211 -49 123 c-181 449 -325 964 -405 1454 -14
82 -26 151 -28 152 -1 2 -48 -36 -102 -83z"/>
</g>
</svg>
