<?xml version="1.0" standalone="no"?>
<!DOCTYPE svg PUBLIC "-//W3C//DTD SVG 20010904//EN"
 "http://www.w3.org/TR/2001/REC-SVG-20010904/DTD/svg10.dtd">
<svg version="1.0" xmlns="http://www.w3.org/2000/svg"
 width="313.6000000pt" height="167.2000000pt" viewBox="0 0 3136.000000 1672.000000"
 preserveAspectRatio="xMidYMid meet">

<g transform="translate(0.000000,1672.000000) scale(0.100000,-0.100000)"
fill="#000000" stroke="none">
<path d="M14770 16279 c-2852 -96 -5517 -615 -7780 -1514 -491 -195 -837 -350
-1300 -582 -2022 -1012 -3451 -2290 -4164 -3723 -259 -521 -403 -985 -478
-1545 -20 -152 -23 -210 -23 -550 1 -411 11 -539 71 -848 120 -623 380 -1247
769 -1837 378 -576 891 -1137 1505 -1649 1225 -1020 2951 -1910 4892 -2520
1847 -581 3856 -928 6013 -1040 495 -26 906 -33 1627 -28 756 5 920 10 1513
47 3837 240 7298 1276 9734 2913 1670 1123 2753 2514 3080 3955 84 370 105
570 106 1002 0 430 -20 622 -101 990 -214 972 -783 1938 -1650 2805 -1806
1806 -4886 3175 -8501 3779 -1169 195 -2267 303 -3533 346 -326 11 -1445 11
-1780 -1z m1780 -659 c2074 -74 3950 -352 5730 -850 2599 -727 4768 -1909
6030 -3284 789 -861 1217 -1708 1347 -2666 26 -193 26 -716 0 -910 -126 -943
-548 -1786 -1318 -2635 -1276 -1408 -3469 -2600 -6143 -3340 -2479 -685 -5345
-963 -8166 -789 -3365 206 -6438 1039 -8752 2370 -1056 608 -1917 1314 -2534
2079 -539 668 -889 1404 -1013 2128 -70 407 -70 879 0 1284 194 1126 900 2214
2069 3188 617 514 1332 970 2210 1408 2398 1198 5434 1898 8750 2016 329 12
1471 12 1790 1z"/>
<path d="M8575 11934 c-184 -17 -308 -50 -445 -119 -280 -141 -474 -406 -544
-748 -29 -137 -36 -252 -36 -570 0 -314 0 -318 -20 -313 -11 3 -29 8 -39 11
-121 35 -515 14 -693 -35 -66 -19 -68 -27 -68 -277 0 -294 -13 -278 195 -239
118 23 278 21 357 -4 114 -35 188 -123 235 -280 29 -95 29 -1036 0 -3082 l-2
-178 25 -25 25 -25 342 -6 c371 -8 392 -6 417 45 10 21 11 168 5 751 -10 971
-10 2085 0 2300 7 149 13 187 35 255 45 134 123 218 229 250 66 20 247 19 352
-1 151 -28 151 -28 174 -5 20 20 21 30 21 241 0 248 -3 262 -69 280 -189 53
-575 70 -710 30 l-33 -9 5 322 c4 253 9 338 22 397 46 205 138 324 289 377 71
25 335 24 451 -2 131 -29 138 -29 168 -5 l27 21 0 260 0 261 -28 27 c-32 33
-114 54 -291 75 -124 16 -330 26 -396 20z"/>
<path d="M14724 10234 c-671 -81 -1109 -391 -1239 -877 -74 -273 -49 -599 61
-820 103 -205 250 -340 506 -461 233 -112 441 -165 1058 -271 581 -100 786
-169 931 -316 87 -87 111 -146 117 -284 7 -179 -41 -301 -167 -425 -124 -123
-303 -198 -548 -231 -135 -18 -482 -6 -605 20 -443 96 -662 332 -708 763 -5
51 -10 103 -10 116 0 13 -11 34 -25 47 l-24 25 -336 0 -336 0 -24 -25 c-22
-21 -25 -33 -25 -92 0 -72 21 -244 40 -328 54 -248 176 -472 349 -646 235
-234 542 -373 973 -441 125 -19 183 -22 453 -23 340 0 426 8 662 65 458 110
808 355 980 686 85 162 123 330 123 539 0 573 -311 933 -957 1110 -181 50
-315 77 -696 140 -392 64 -533 94 -672 142 -193 67 -300 144 -355 257 -85 172
-29 430 123 572 150 140 368 204 698 204 248 0 420 -34 589 -117 79 -39 110
-62 181 -132 68 -69 94 -103 127 -171 42 -85 82 -218 82 -272 0 -40 25 -94 48
-107 14 -7 129 -11 334 -11 339 0 348 1 368 55 26 68 -42 388 -113 538 -124
262 -308 446 -582 582 -204 101 -409 159 -675 189 -167 20 -548 20 -706 0z"/>
<path d="M18520 10236 c-423 -54 -731 -182 -954 -396 -144 -138 -241 -303
-294 -498 -24 -90 -26 -112 -26 -312 -1 -172 3 -229 16 -282 97 -378 341 -608
809 -762 170 -56 378 -102 747 -166 458 -79 619 -116 782 -181 273 -110 393
-301 347 -551 -23 -130 -65 -208 -161 -304 -67 -67 -98 -89 -176 -127 -191
-93 -366 -122 -673 -114 -221 6 -330 23 -480 75 -131 45 -212 95 -308 191
-140 141 -208 307 -227 552 -8 94 -12 113 -32 134 l-23 25 -337 0 c-324 0
-337 -1 -358 -20 -32 -31 -36 -61 -23 -194 21 -223 65 -384 147 -549 217 -431
618 -682 1239 -774 174 -26 681 -26 845 0 258 41 462 101 640 191 375 187 607
468 680 826 19 92 21 128 17 290 -4 158 -8 200 -30 284 -80 303 -275 524 -596
674 -224 105 -462 164 -1026 257 -369 61 -474 82 -605 121 -242 73 -379 171
-433 311 -41 104 -26 280 34 402 40 82 140 183 224 227 144 76 334 114 574
114 386 0 657 -97 820 -295 87 -105 130 -206 160 -372 15 -84 24 -111 41 -125
20 -16 50 -18 345 -18 l323 0 26 31 c29 34 30 49 16 169 -37 293 -152 534
-349 731 -226 226 -512 355 -937 425 -136 22 -637 28 -784 10z"/>
<path d="M9519 10141 l-29 -29 6 -1269 c3 -697 9 -1339 15 -1425 45 -733 351
-1212 890 -1392 169 -57 265 -70 499 -71 228 0 343 17 514 75 265 89 547 289
718 509 28 36 55 70 59 75 4 5 5 -110 2 -256 l-6 -264 32 -27 33 -27 319 0
c343 0 364 3 390 52 9 16 10 293 5 1127 -4 608 -3 1504 3 1990 6 638 6 891 -2
908 -23 51 -40 53 -402 53 -360 0 -385 -3 -400 -51 -4 -12 -4 -542 0 -1178 l7
-1156 -36 -140 c-139 -533 -409 -877 -786 -1001 -79 -26 -97 -28 -250 -29
-191 0 -245 11 -380 77 -68 33 -102 58 -171 127 -74 74 -94 101 -138 191 -56
115 -94 247 -112 393 -9 67 -10 449 -6 1401 l6 1309 -29 28 -28 29 -347 0
-347 0 -29 -29z"/>
<path d="M20674 10145 c-21 -21 -25 -33 -21 -58 3 -18 364 -925 802 -2017
l797 -1985 -6 -105 c-16 -307 -133 -490 -345 -540 -69 -16 -307 -7 -406 15
-131 30 -131 30 -159 2 l-26 -26 0 -254 c0 -295 0 -295 93 -322 158 -45 478
-73 634 -56 205 22 335 83 479 226 139 136 264 345 373 623 23 56 295 846 605
1755 311 909 644 1879 740 2157 97 277 176 519 176 537 0 22 -8 38 -26 52 -26
20 -38 21 -368 21 -363 0 -372 -1 -407 -50 -11 -14 -229 -688 -486 -1499 -458
-1444 -468 -1473 -481 -1440 -8 19 -259 687 -559 1484 -385 1026 -552 1457
-569 1475 l-24 25 -395 3 -395 3 -26 -26z"/>
<path d="M24315 7078 c-138 -26 -268 -129 -332 -264 -38 -78 -38 -80 -38 -205
l0 -125 39 -79 c72 -146 201 -241 362 -265 323 -50 601 248 533 572 -28 132
-138 270 -261 328 -101 48 -193 59 -303 38z"/>
</g>
</svg>
