<?xml version="1.0" standalone="no"?>
<!DOCTYPE svg PUBLIC "-//W3C//DTD SVG 20010904//EN"
 "http://www.w3.org/TR/2001/REC-SVG-20010904/DTD/svg10.dtd">
<svg version="1.0" xmlns="http://www.w3.org/2000/svg"
 width="162.0000000pt" height="104.3000000pt" viewBox="0 0 1620.000000 1043.000000"
 preserveAspectRatio="xMidYMid meet">

<g transform="translate(0.000000,1043.000000) scale(0.100000,-0.100000)"
fill="#000000" stroke="none">
<path d="M4043 8397 l-4043 -2022 0 -1160 0 -1160 4050 -2025 4050 -2025 4050
2025 4050 2025 0 1160 0 1160 -2025 1012 -2024 1013 -3190 -1593 c-1754 -875
-3190 -1594 -3190 -1597 -1 -3 520 -265 1157 -583 l1157 -579 2028 1011 c1116
556 2034 1011 2040 1010 7 0 396 -192 864 -427 l853 -427 -2885 -1442 -2885
-1443 -2877 1439 c-1583 791 -2879 1441 -2881 1445 -1 3 1817 916 4040 2027
l4043 2021 -1155 579 c-635 318 -1162 578 -1170 578 -8 0 -1834 -910 -4057
-2022z"/>
</g>
</svg>
