<?xml version="1.0" standalone="no"?>
<!DOCTYPE svg PUBLIC "-//W3C//DTD SVG 20010904//EN"
 "http://www.w3.org/TR/2001/REC-SVG-20010904/DTD/svg10.dtd">
<svg version="1.0" xmlns="http://www.w3.org/2000/svg"
 width="256.0000000pt" height="77.4000000pt" viewBox="0 0 2560.000000 774.000000"
 preserveAspectRatio="xMidYMid meet">

<g transform="translate(0.000000,774.000000) scale(0.100000,-0.100000)"
fill="#000000" stroke="none">
<path d="M1516 7559 c-131 -12 -319 -51 -436 -89 -565 -185 -870 -611 -820
-1144 35 -380 211 -653 561 -871 174 -108 341 -181 754 -330 412 -148 590
-250 660 -376 27 -48 30 -63 30 -139 0 -101 -21 -156 -84 -219 -113 -113 -351
-167 -633 -142 -169 15 -267 34 -401 77 -230 75 -479 203 -790 408 l-27 18 0
-421 0 -421 132 -66 c450 -226 731 -299 1194 -311 415 -11 720 47 998 190 249
127 449 339 540 570 62 156 70 205 70 427 0 190 -2 212 -26 300 -49 180 -126
316 -258 453 -197 208 -429 335 -995 547 -428 161 -572 232 -655 326 -94 107
-95 242 -2 345 148 165 540 208 968 104 185 -44 504 -159 747 -269 l57 -26 0
381 0 380 -52 23 c-265 117 -638 224 -908 261 -141 19 -490 27 -624 14z"/>
<path d="M15915 7545 c-283 -81 -508 -360 -493 -611 22 -352 480 -389 781 -64
219 237 219 549 -1 657 -46 23 -71 28 -146 30 -56 1 -110 -3 -141 -12z"/>
<path d="M6270 5555 l0 -1965 420 0 420 0 0 848 0 847 53 70 c110 147 245 263
350 301 162 59 358 19 458 -94 50 -58 82 -117 111 -214 21 -71 22 -88 26 -630
l3 -556 113 54 c153 72 383 148 552 180 76 15 145 28 152 30 16 4 17 924 1
1040 -34 249 -147 466 -313 606 -88 73 -258 158 -381 190 -79 20 -113 23 -270
22 -167 0 -187 -2 -270 -28 -186 -57 -296 -126 -458 -288 -65 -65 -120 -118
-123 -118 -2 0 -4 376 -4 835 l0 835 -420 0 -420 0 0 -1965z"/>
<path d="M18650 6824 c0 -383 -3 -694 -7 -692 -169 74 -352 129 -500 149 -111
15 -383 6 -478 -15 -176 -40 -361 -121 -485 -215 -88 -67 -225 -211 -281 -296
-134 -203 -208 -431 -231 -702 -26 -306 33 -614 163 -864 189 -360 516 -595
908 -650 129 -18 344 -7 466 25 117 30 271 103 370 175 l70 51 3 -105 3 -105
414 0 415 0 0 1970 0 1970 -415 0 -415 0 0 -696z m-294 -1109 c57 -14 139 -45
194 -73 l95 -47 2 -650 3 -650 -68 -53 c-149 -117 -302 -169 -471 -159 -300
17 -514 224 -588 567 -25 117 -25 390 0 508 40 187 112 328 217 425 153 142
382 191 616 132z"/>
<path d="M24680 6289 c-139 -15 -296 -103 -420 -236 -94 -101 -214 -282 -292
-444 -35 -70 -69 -128 -75 -128 -10 -1 -13 82 -13 384 l0 385 -415 0 -415 0 0
-1335 0 -1335 415 0 415 0 0 574 0 575 60 143 c255 602 531 764 946 555 39
-19 97 -51 129 -71 l59 -35 113 362 c62 199 113 365 113 369 0 12 -180 128
-262 169 -122 62 -228 82 -358 68z"/>
<path d="M4710 6274 c-639 -101 -1077 -494 -1206 -1085 -15 -66 -19 -127 -19
-289 0 -222 15 -325 72 -484 162 -457 546 -755 1103 -858 155 -29 531 -32 685
-5 140 24 330 72 460 115 l110 37 3 299 c2 246 0 297 -11 293 -93 -35 -331
-113 -406 -131 -484 -122 -877 13 -1046 358 -69 140 -80 193 -80 386 0 145 3
174 23 240 82 258 260 428 527 502 110 30 406 33 535 4 108 -23 244 -68 339
-112 41 -19 75 -34 78 -34 2 0 2 138 1 307 l-3 306 -70 24 c-109 38 -325 91
-459 114 -162 28 -498 35 -636 13z"/>
<path d="M10838 6274 c-199 -36 -383 -140 -563 -319 l-95 -94 0 190 0 189
-415 0 -415 0 0 -905 0 -905 24 0 c45 0 219 -40 322 -74 174 -59 329 -146 432
-245 l52 -50 0 622 0 622 71 95 c192 257 336 347 542 338 72 -3 104 -10 149
-30 106 -49 178 -138 224 -278 17 -51 19 -115 22 -952 l3 -898 415 0 415 0 -4
958 c-3 952 -3 957 -25 1041 -53 199 -139 351 -267 468 -125 116 -293 196
-475 229 -96 17 -313 16 -412 -2z"/>
<path d="M13527 6275 c-381 -62 -685 -240 -897 -525 -264 -357 -340 -896 -188
-1330 200 -568 739 -890 1488 -890 355 0 628 58 895 189 66 33 155 83 198 111
l77 51 0 256 0 255 -22 -14 c-13 -9 -68 -45 -123 -81 -273 -179 -504 -260
-775 -273 -416 -21 -726 127 -866 411 -48 99 -72 177 -81 273 l-6 62 962 0
961 0 0 58 c0 99 -20 293 -40 390 -58 278 -174 498 -364 688 -186 186 -397
298 -676 359 -106 23 -426 29 -543 10z m436 -490 c168 -35 293 -136 371 -297
40 -84 76 -205 76 -257 0 -21 -2 -21 -583 -21 l-584 0 9 58 c49 329 262 528
568 531 41 0 106 -6 143 -14z"/>
<path d="M21065 6284 c-344 -52 -591 -165 -803 -368 -194 -185 -324 -421 -382
-691 -31 -145 -38 -412 -15 -560 98 -631 577 -1046 1297 -1124 124 -14 380
-14 506 -1 309 33 603 134 829 284 l78 52 3 257 2 256 -122 -80 c-215 -139
-416 -228 -606 -266 -122 -24 -386 -24 -501 0 -299 64 -500 223 -588 465 -25
68 -53 194 -53 238 l0 24 960 0 960 0 0 79 c0 582 -264 1057 -716 1288 -208
107 -365 143 -629 148 -104 2 -203 1 -220 -1z m380 -499 c106 -23 190 -68 265
-144 94 -96 156 -224 178 -373 l9 -58 -584 0 -583 0 0 26 c0 52 33 171 69 249
51 110 138 203 235 250 125 62 270 80 411 50z"/>
<path d="M15480 4910 l0 -1330 415 0 415 0 0 1330 0 1330 -415 0 -415 0 0
-1330z"/>
<path d="M8845 3975 c-703 -104 -1420 -554 -1890 -1187 l-27 -38 246 0 c135 0
246 -1 246 -2 0 -2 -27 -77 -59 -168 l-58 -165 -300 -3 -300 -2 -71 -148 -72
-147 350 -3 c197 -1 350 -6 350 -11 0 -5 -25 -82 -56 -170 l-56 -161 -346 -2
-346 -3 -8 -35 c-57 -267 -52 -573 13 -795 150 -508 647 -800 1271 -747 740
62 1520 526 2023 1202 l64 85 -315 3 c-172 1 -314 6 -314 10 0 4 22 79 48 167
l48 160 376 3 375 2 60 128 c34 70 64 137 68 150 l6 22 -406 0 c-382 0 -406 1
-401 18 13 41 86 312 86 317 0 3 186 5 414 5 l413 0 12 58 c61 315 28 639 -91
877 -157 316 -457 522 -841 579 -127 19 -384 19 -512 1z m932 -767 c-3 -13
-27 -123 -53 -245 l-48 -223 -277 0 c-249 0 -279 -2 -297 -17 -15 -14 -55
-151 -167 -578 -80 -308 -153 -578 -161 -600 -53 -140 -209 -316 -366 -413
-157 -97 -351 -161 -549 -182 -56 -5 -285 -10 -510 -10 -376 0 -409 1 -409 17
0 13 102 412 126 496 5 16 26 17 262 17 141 0 275 5 296 10 23 5 54 23 73 42
33 33 36 46 157 550 132 555 148 604 240 732 55 77 172 190 255 245 123 83
291 149 437 170 33 5 270 9 528 10 l468 1 -5 -22z"/>
<path d="M11190 1955 l0 -1145 665 0 665 0 0 145 0 145 -505 0 -505 0 0 360 0
360 470 0 470 0 0 145 0 145 -470 0 -470 0 2 353 3 352 488 3 487 2 0 140 0
140 -650 0 -650 0 0 -1145z"/>
<path d="M13290 1955 l0 -1145 145 0 145 0 0 1145 0 1145 -145 0 -145 0 0
-1145z"/>
<path d="M22390 2923 c-37 -14 -100 -66 -120 -98 -32 -52 -41 -93 -29 -137 13
-49 48 -72 108 -71 110 2 214 105 214 212 0 37 -5 49 -31 73 -26 23 -41 28
-80 27 -26 0 -54 -3 -62 -6z"/>
<path d="M18755 2360 c-148 -146 -271 -273 -273 -282 -3 -16 8 -18 127 -18
l131 0 0 -437 c0 -356 3 -450 15 -502 43 -179 168 -293 359 -328 124 -22 279
1 417 63 l59 27 0 134 c0 74 -3 133 -7 131 -210 -108 -340 -131 -444 -78 -43
22 -81 68 -98 119 -7 23 -11 166 -11 452 l0 419 240 0 240 0 0 130 0 130 -240
0 -239 0 -3 153 -3 152 -270 -265z"/>
<path d="M14955 2344 c-266 -43 -471 -218 -550 -467 -37 -116 -48 -207 -42
-337 10 -213 81 -398 204 -530 151 -163 302 -225 543 -223 218 1 387 48 542
150 l38 26 0 139 0 139 -42 -26 c-377 -234 -787 -194 -932 92 -24 48 -66 182
-66 210 0 10 108 13 531 13 l532 0 -6 113 c-19 358 -186 608 -457 683 -56 15
-241 26 -295 18z m267 -276 c30 -14 72 -42 93 -63 50 -51 96 -150 102 -225 l6
-60 -383 0 -383 0 7 43 c10 64 69 180 115 226 43 43 118 85 178 101 68 17 204
6 265 -22z"/>
<path d="M17098 2340 c-165 -30 -275 -86 -384 -195 -96 -96 -152 -197 -191
-343 -22 -84 -26 -118 -27 -252 0 -132 3 -167 22 -233 74 -258 257 -438 518
-508 156 -42 443 -24 612 39 l47 18 3 142 c1 78 1 142 -1 142 -2 0 -32 -11
-66 -25 -208 -85 -435 -88 -599 -9 -112 55 -205 179 -233 312 -15 72 -6 263
14 327 42 131 150 251 267 297 45 18 76 22 175 23 140 0 200 -16 330 -90 43
-25 80 -45 82 -45 2 0 3 69 3 154 l0 153 -82 31 c-46 17 -110 38 -143 47 -70
18 -280 28 -347 15z"/>
<path d="M20997 2326 c-101 -42 -198 -138 -288 -285 -24 -39 -47 -71 -51 -71
-5 0 -8 79 -8 175 l0 175 -145 0 -145 0 0 -755 0 -755 144 0 145 0 4 453 c4
489 3 480 62 597 89 177 275 253 425 176 30 -15 78 -46 106 -67 28 -22 53 -39
56 -39 7 0 148 236 148 248 0 17 -150 121 -207 142 -91 34 -176 36 -246 6z"/>
<path d="M23955 2341 c-163 -26 -280 -85 -391 -196 -128 -128 -192 -277 -216
-501 -43 -411 167 -735 541 -836 59 -16 106 -20 216 -21 145 0 234 13 373 54
l72 22 0 145 c0 133 -1 144 -17 137 -66 -29 -181 -65 -233 -75 -86 -16 -234
-13 -303 5 -267 70 -404 319 -341 623 32 156 127 282 261 344 57 27 80 32 167
36 74 3 118 0 165 -13 64 -16 182 -70 233 -106 14 -11 29 -19 32 -19 3 0 6 69
6 154 l0 155 -80 30 c-44 17 -108 38 -142 46 -75 18 -273 27 -343 16z"/>
<path d="M22260 1565 l0 -755 145 0 145 0 0 755 0 755 -145 0 -145 0 0 -755z"/>
</g>
</svg>
