<?xml version="1.0" standalone="no"?>
<!DOCTYPE svg PUBLIC "-//W3C//DTD SVG 20010904//EN"
 "http://www.w3.org/TR/2001/REC-SVG-20010904/DTD/svg10.dtd">
<svg version="1.0" xmlns="http://www.w3.org/2000/svg"
 width="1024.000000pt" height="600.000000pt" viewBox="0 0 1024.000000 600.000000"
 preserveAspectRatio="xMidYMid meet">

<g transform="translate(0.000000,600.000000) scale(0.100000,-0.100000)"
fill="#000000" stroke="none">
<path d="M4917 5499 c-53 -5 -150 -20 -215 -34 -587 -127 -1076 -482 -1370
-995 -202 -353 -295 -758 -264 -1153 6 -83 17 -181 24 -216 l12 -63 317 -230
317 -230 12 -97 c6 -53 28 -226 48 -386 l37 -290 523 -3 524 -2 41 -29 c86
-58 107 -65 197 -65 90 0 111 7 197 65 l41 29 524 2 523 3 37 290 c20 160 42
333 48 386 l12 97 318 230 317 231 19 113 c23 146 23 426 0 583 -68 449 -252
825 -561 1144 -175 181 -354 311 -570 417 -350 170 -715 237 -1108 203z m115
-419 c4 -25 24 -496 45 -1047 20 -552 40 -1003 43 -1003 3 0 23 453 44 1008
21 554 41 1025 45 1047 l7 40 77 3 c43 2 115 -4 160 -11 81 -14 226 -64 262
-91 18 -13 11 -52 -183 -1022 -111 -555 -202 -1013 -201 -1019 0 -5 126 428
279 964 154 535 281 975 283 977 14 15 172 -63 260 -128 63 -47 177 -162 177
-179 0 -5 -174 -379 -386 -831 -407 -867 -422 -899 -406 -883 5 6 209 354 452
775 243 421 445 769 447 773 9 14 101 -83 152 -159 54 -80 112 -211 114 -258
2 -27 -63 -111 -516 -671 l-518 -640 533 538 c293 295 536 537 540 537 25 -1
78 -234 78 -347 0 -77 -18 -203 -32 -220 -5 -6 -145 -110 -310 -230 -165 -120
-304 -227 -309 -238 -4 -11 -22 -137 -39 -280 -17 -143 -34 -275 -37 -292 l-5
-33 -379 0 -378 0 -81 -55 c-116 -79 -163 -77 -286 17 l-51 38 -381 0 -380 0
-6 38 c-3 20 -20 150 -36 287 -17 138 -33 260 -35 272 -4 15 -99 90 -298 234
-160 117 -302 221 -313 231 -42 37 -57 240 -28 388 16 85 50 190 62 190 4 0
247 -242 540 -537 l533 -538 -517 639 c-283 351 -518 644 -521 652 -3 7 3 37
12 66 39 119 122 253 208 336 l44 43 20 -33 c11 -18 214 -370 453 -783 238
-412 437 -754 442 -760 14 -15 -9 34 -421 913 -209 447 -381 817 -381 822 0
16 111 129 173 176 82 62 250 144 264 130 2 -2 129 -442 283 -977 153 -536
279 -969 279 -964 1 6 -89 460 -199 1010 -110 550 -200 1005 -200 1012 0 16
52 42 150 77 94 34 161 44 275 42 l90 -1 7 -45z"/>
<path d="M3446 1399 c-211 -22 -329 -107 -351 -251 -14 -90 37 -193 114 -233
43 -21 124 -34 307 -50 218 -18 244 -30 244 -105 0 -98 -178 -151 -319 -94
-49 19 -91 66 -91 100 l0 24 -146 0 -146 0 7 -42 c25 -148 135 -218 374 -239
210 -19 402 17 509 94 101 72 135 221 73 318 -54 86 -127 112 -368 129 -187
13 -225 22 -252 57 -27 33 -26 63 1 98 67 85 249 85 316 0 12 -15 22 -38 22
-51 l0 -24 145 0 c80 0 145 4 145 8 0 5 -7 31 -15 58 -39 131 -161 195 -395
207 -52 2 -130 1 -174 -4z"/>
<path d="M4220 955 l0 -435 140 0 140 0 0 178 c0 97 5 194 10 214 14 48 55 97
97 114 76 32 183 8 216 -49 8 -15 13 -91 15 -239 l4 -218 135 0 135 0 -5 238
c-3 155 -9 250 -18 275 -19 56 -71 111 -131 138 -45 21 -68 24 -158 23 -113 0
-180 -19 -255 -69 -20 -14 -38 -25 -40 -25 -3 0 -5 65 -5 145 l0 145 -140 0
-140 0 0 -435z"/>
<path d="M6370 955 l0 -435 140 0 140 0 0 435 0 435 -140 0 -140 0 0 -435z"/>
<path d="M6900 955 l0 -435 140 0 140 0 0 435 0 435 -140 0 -140 0 0 -435z"/>
<path d="M5612 1190 c-133 -20 -259 -99 -315 -199 -39 -69 -48 -172 -23 -249
33 -99 146 -194 267 -226 206 -53 439 -14 563 94 32 28 66 77 66 95 0 3 -60 5
-134 5 -133 0 -134 0 -151 -26 -27 -42 -98 -68 -167 -60 -99 10 -165 61 -175
135 l-6 41 328 0 328 0 -7 63 c-8 83 -54 176 -110 221 -110 91 -289 131 -464
106z m213 -139 c46 -21 79 -54 94 -93 l11 -28 -196 0 -195 0 7 23 c30 99 171
148 279 98z"/>
</g>
</svg>
