<?xml version="1.0" standalone="no"?>
<!DOCTYPE svg PUBLIC "-//W3C//DTD SVG 20010904//EN"
 "http://www.w3.org/TR/2001/REC-SVG-20010904/DTD/svg10.dtd">
<svg version="1.0" xmlns="http://www.w3.org/2000/svg"
 width="256.0000000pt" height="130.1000000pt" viewBox="0 0 2560.000000 1301.000000"
 preserveAspectRatio="xMidYMid meet">

<g transform="translate(0.000000,1301.000000) scale(0.100000,-0.100000)"
fill="#000000" stroke="none">
<path d="M4489 12709 c-24 -19 -28 -20 -64 -5 -84 35 -142 6 -132 -67 7 -51
28 -71 73 -70 46 1 66 21 67 66 1 29 5 35 23 35 22 0 20 -6 -32 -109 -57 -115
-62 -129 -41 -129 10 0 157 276 157 295 0 11 -27 3 -51 -16z m-104 -69 c0 -28
-4 -35 -20 -35 -16 0 -21 8 -23 38 -3 35 -1 38 20 35 19 -2 23 -9 23 -38z"/>
<path d="M5000 12705 c-14 -16 -5 -35 16 -35 17 0 17 0 4 -76 -18 -101 -19
-104 -41 -104 -15 0 -20 -5 -17 -22 2 -18 13 -24 61 -33 48 -10 59 -9 70 3 9
12 8 17 -9 29 l-21 13 18 107 c10 59 15 110 11 114 -16 15 -81 17 -92 4z"/>
<path d="M4072 12650 c-50 -31 -67 -81 -52 -149 23 -104 98 -147 185 -106 42
20 60 57 59 115 -4 124 -102 195 -192 140z m97 -66 c24 -30 36 -83 26 -113 -9
-29 -40 -44 -64 -32 -20 11 -51 79 -51 112 0 59 53 79 89 33z"/>
<path d="M4791 12645 c-38 -49 -23 -86 44 -107 23 -8 40 -19 40 -28 0 -26 -36
-23 -65 5 -37 36 -60 28 -60 -21 0 -35 1 -36 30 -31 16 4 32 2 35 -3 3 -6 24
-10 46 -10 42 0 89 34 89 63 0 25 -33 56 -74 70 -22 8 -41 18 -43 24 -7 20 26
22 50 2 39 -30 57 -25 57 16 0 31 -3 34 -27 34 -16 0 -44 3 -64 6 -31 6 -39 3
-58 -20z"/>
<path d="M4513 12595 c-35 -15 -44 -41 -31 -90 15 -56 79 -74 119 -34 17 17
20 29 16 62 -9 63 -47 87 -104 62z m55 -68 c3 -35 1 -38 -20 -35 -24 3 -35 34
-24 64 12 30 41 11 44 -29z"/>
<path d="M5181 12591 c-23 -23 -21 -35 9 -51 16 -8 23 -6 36 9 20 23 44 17 44
-10 0 -16 -8 -19 -55 -19 -84 0 -120 -47 -76 -101 14 -18 29 -24 63 -24 24 -1
55 -9 68 -18 30 -21 44 -21 61 -1 11 14 10 18 -5 30 -17 12 -18 17 -4 71 7 32
12 66 10 76 -4 21 -44 43 -94 52 -29 6 -40 3 -57 -14z m67 -128 c-4 -23 -58
-31 -58 -9 0 15 14 24 43 25 12 1 17 -5 15 -16z"/>
<path d="M3774 12536 c-29 -29 -34 -41 -34 -80 0 -52 25 -109 64 -145 53 -50
160 -19 184 54 10 32 10 47 -3 91 -21 72 -69 114 -131 114 -39 0 -51 -5 -80
-34z m97 -26 c24 -13 59 -81 59 -114 0 -25 -23 -56 -41 -56 -25 0 -52 25 -70
63 -24 54 -24 72 1 97 23 23 25 23 51 10z"/>
<path d="M5419 12514 c-9 -11 -10 -20 -2 -32 14 -23 44 -27 58 -8 10 13 15 13
30 2 31 -22 8 -37 -55 -35 -70 2 -90 -10 -90 -57 0 -40 29 -64 80 -64 24 0 39
-6 48 -20 17 -27 72 -28 72 -1 0 11 -5 21 -12 23 -8 3 -5 22 11 65 28 76 22
99 -32 124 -51 23 -90 24 -108 3z m71 -122 c0 -14 -23 -32 -41 -32 -21 0 -33
16 -24 30 7 12 65 14 65 2z"/>
<path d="M5706 12451 c-10 -10 -25 -17 -35 -14 -24 6 -35 -24 -13 -36 15 -8
14 -14 -10 -58 -20 -36 -33 -48 -50 -48 -45 0 -31 -31 28 -65 51 -29 58 -30
72 -16 15 14 14 17 -3 30 -20 15 -20 16 5 63 22 42 29 48 53 45 21 -3 27 1 27
16 0 11 -7 22 -15 26 -18 6 -9 36 11 36 8 0 13 -9 11 -22 -3 -32 47 -33 51 -2
7 50 -96 85 -132 45z"/>
<path d="M3547 12426 c-51 -31 -59 -40 -51 -59 7 -19 39 -23 49 -7 12 19 21
10 58 -53 40 -69 45 -92 22 -101 -8 -3 -15 -15 -15 -26 0 -27 30 -26 73 3 19
12 49 30 66 39 28 15 31 20 21 39 -8 14 -17 18 -28 14 -9 -4 -21 -7 -26 -8 -5
-1 -33 39 -63 88 -29 50 -57 91 -61 92 -4 0 -24 -9 -45 -21z"/>
<path d="M5804 12345 c-4 -8 -2 -21 4 -28 7 -8 5 -36 -9 -92 l-19 -80 27 -22
c16 -13 32 -23 37 -23 5 0 39 19 75 43 36 23 77 42 91 42 40 0 31 30 -20 64
-47 31 -76 27 -65 -9 4 -13 -7 -28 -35 -50 -23 -18 -42 -31 -44 -29 -7 8 29
104 39 104 14 0 35 15 35 24 0 8 -93 71 -104 71 -4 0 -9 -7 -12 -15z"/>
<path d="M3320 12190 c-11 -11 -20 -32 -21 -47 0 -16 -3 -22 -6 -15 -2 6 -10
12 -17 12 -15 0 -56 -42 -56 -58 0 -17 20 -25 34 -12 11 8 22 1 52 -35 29 -36
35 -48 24 -55 -15 -9 -6 -40 12 -40 7 1 35 20 63 44 43 39 47 46 36 60 -13 15
-15 15 -32 0 -16 -15 -20 -13 -48 27 -17 23 -31 48 -31 55 0 19 20 28 33 15
16 -16 25 -14 37 9 8 15 6 24 -10 40 -25 25 -45 25 -70 0z"/>
<path d="M6045 12170 c-4 -6 -1 -18 6 -26 19 -23 -39 -90 -75 -86 -45 5 -43
-24 5 -68 24 -21 52 -39 61 -40 26 0 33 21 13 37 -18 12 -17 15 15 48 42 44
76 47 75 8 0 -38 40 -45 56 -10 20 45 -29 91 -77 73 -14 -5 -15 -4 -4 9 11 13
9 20 -10 40 -24 26 -54 33 -65 15z"/>
<path d="M7183 12076 c-248 -17 -454 -34 -457 -37 -3 -3 17 -36 45 -75 478
-654 604 -1532 333 -2306 -41 -118 -151 -351 -212 -452 -23 -37 -42 -69 -42
-70 0 -2 58 -1 128 2 327 12 588 -62 733 -207 75 -75 117 -154 131 -246 6 -42
-10 -705 -54 -2200 l-64 -2140 -29 -55 c-46 -86 -193 -226 -290 -276 -104 -54
-208 -88 -334 -109 -142 -24 -449 -17 -568 14 -214 54 -371 169 -448 326 -49
100 -56 145 -61 390 -7 353 -44 3277 -44 3477 l0 177 -141 -69 c-169 -83 -394
-158 -582 -196 l-137 -28 0 -58 c0 -118 -190 -3288 -204 -3413 -25 -212 -29
-313 -16 -439 24 -240 77 -374 194 -491 140 -137 324 -214 513 -215 40 0 599
-36 1242 -80 643 -44 1199 -80 1236 -80 121 0 238 42 384 136 46 31 104 77
130 103 119 122 199 379 219 706 9 140 -90 6144 -108 6555 -34 771 -198 1154
-566 1321 -174 79 -255 82 -931 35z"/>
<path d="M6293 12044 c-8 -22 10 -49 32 -49 10 0 22 7 28 16 15 24 1 49 -28
49 -15 0 -28 -7 -32 -16z"/>
<path d="M6223 12023 c-7 -2 -13 -11 -13 -18 0 -7 6 -15 13 -18 7 -3 -3 -20
-30 -48 -35 -36 -44 -40 -57 -30 -16 14 -36 7 -36 -12 1 -7 19 -32 40 -56 43
-47 77 -51 66 -8 -4 19 5 33 44 72 28 27 50 54 50 60 0 11 -52 66 -61 64 -2 0
-10 -3 -16 -6z"/>
<path d="M3110 11994 c-56 -48 -72 -104 -33 -118 25 -10 45 14 39 46 -6 32 16
50 37 29 9 -9 6 -22 -11 -54 -12 -23 -22 -51 -22 -63 0 -26 30 -54 57 -54 28
0 69 35 77 64 3 14 16 26 29 30 30 7 52 50 34 65 -8 6 -18 6 -27 1 -10 -6 -28
5 -63 36 -27 24 -57 44 -67 44 -10 0 -32 -12 -50 -26z m105 -105 c9 -26 -19
-59 -35 -43 -8 8 -7 19 1 37 15 32 25 34 34 6z"/>
<path d="M18870 11922 c-366 -36 -666 -66 -666 -66 -2 -1 -224 -2737 -224
-2758 0 -13 13 -18 58 -23 276 -30 411 -80 528 -195 141 -139 143 -355 5 -589
-53 -90 -1033 -1373 -1041 -1364 -5 4 -234 382 -511 838 -315 520 -515 861
-537 914 -19 46 -36 110 -39 141 -5 51 -2 67 25 124 87 185 282 283 542 274
97 -3 100 -2 100 19 0 12 -54 601 -120 1310 -66 708 -120 1296 -120 1306 0 16
-26 17 -402 17 -222 0 -602 -3 -845 -7 l-443 -6 0 -342 c0 -188 3 -767 7
-1288 l6 -946 41 -7 c53 -8 197 -59 261 -92 122 -61 273 -189 376 -318 33 -41
203 -351 494 -896 l444 -834 -45 -1094 c-24 -602 -44 -1162 -45 -1244 0 -186
-17 -288 -64 -383 -77 -156 -237 -238 -488 -250 -113 -6 -118 -7 -123 -29 -4
-13 -34 -157 -68 -319 l-62 -295 1413 0 c1339 0 1413 1 1413 18 -1 9 -27 186
-58 392 -39 252 -62 374 -70 373 -197 -41 -389 -47 -492 -14 -81 25 -121 54
-176 128 -50 67 -86 158 -103 258 -13 79 -64 1842 -54 1859 4 6 280 398 613
871 334 473 635 903 670 955 78 117 161 205 220 235 64 32 147 47 277 49 l113
1 0 40 c1 126 -52 3136 -56 3213 l-6 92 -41 -1 c-23 -1 -341 -31 -707 -67z"/>
<path d="M6411 11916 c-13 -16 -6 -42 15 -50 31 -12 60 18 48 49 -8 19 -48 20
-63 1z"/>
<path d="M6337 11899 c-14 -8 -16 -14 -6 -25 15 -18 -2 -38 -84 -100 -62 -46
-81 -49 -71 -9 4 17 0 26 -14 34 -27 14 -55 -12 -47 -43 9 -31 62 -76 89 -76
15 0 60 29 120 76 l95 77 -30 38 c-17 22 -31 39 -32 39 -1 0 -10 -5 -20 -11z"/>
<path d="M460 11853 c0 -15 -50 -1008 -111 -2206 -60 -1199 -108 -2181 -106
-2183 8 -8 338 -77 343 -71 3 3 1 311 -4 684 -10 680 -7 814 23 956 31 149 90
258 158 290 44 21 140 22 226 2 106 -25 188 -72 271 -155 128 -127 208 -314
230 -538 7 -65 16 -710 23 -1632 10 -1234 10 -1545 -1 -1628 -18 -147 -58
-330 -98 -451 -83 -249 -181 -362 -370 -427 -66 -23 -97 -27 -184 -28 l-105 0
76 -463 c42 -255 78 -465 80 -467 4 -4 1916 -35 2274 -37 l150 -1 22 363 c12
200 22 381 22 402 l1 37 -43 0 c-67 0 -273 29 -362 51 -44 11 -102 30 -130 44
-130 64 -274 223 -360 400 -64 130 -95 245 -102 375 -3 52 7 642 21 1310 14
668 25 1343 25 1500 -2 301 7 393 51 558 42 152 127 292 216 355 24 17 44 35
44 39 0 5 -24 41 -53 81 -226 308 -378 669 -447 1058 -31 174 -39 550 -16 729
41 314 137 616 278 878 48 90 49 92 26 92 -13 0 -476 25 -1029 55 -552 30
-1012 55 -1021 55 -13 0 -18 -8 -18 -27z"/>
<path d="M22700 11808 c-458 -41 -1131 -123 -1395 -169 -358 -63 -575 -207
-696 -464 -101 -214 -106 -348 -42 -1050 59 -640 153 -1774 153 -1847 0 -12
12 -19 38 -24 64 -12 172 -52 241 -90 300 -164 466 -476 520 -976 52 -472 -88
-915 -380 -1210 l-87 -88 97 -55 c281 -159 620 -258 1025 -299 198 -20 301
-26 711 -36 405 -11 455 -17 580 -79 200 -99 305 -263 325 -511 5 -64 17 -180
26 -256 28 -239 10 -339 -84 -462 -191 -253 -621 -375 -1262 -359 -350 9 -570
53 -781 156 -336 165 -536 444 -574 801 l-6 56 -242 22 c-133 12 -394 37 -579
54 -186 17 -340 29 -343 26 -6 -5 123 -1529 129 -1535 2 -2 169 -7 371 -10
l368 -6 -6 647 c-3 357 -4 646 -1 643 3 -2 47 -93 98 -201 241 -502 382 -753
471 -833 112 -102 305 -177 479 -188 45 -3 637 -12 1316 -21 1219 -15 1236
-15 1330 4 173 36 332 110 437 206 68 62 126 177 149 296 16 82 15 102 -10
465 -14 209 -26 416 -26 460 0 282 -92 692 -209 931 -59 121 -113 191 -194
251 -267 196 -639 245 -1364 177 -390 -36 -618 31 -833 246 -104 104 -163 194
-224 341 -85 208 -114 373 -127 729 -5 151 -20 536 -34 855 -14 319 -25 628
-25 686 0 308 157 523 430 590 83 21 338 18 420 -5 147 -40 283 -135 382 -265
61 -81 140 -241 167 -338 11 -40 77 -429 147 -865 70 -436 128 -794 129 -795
2 -3 1180 -62 1181 -60 0 1 94 967 208 2147 113 1180 209 2162 212 2183 l6 37
-229 0 -228 0 -318 -1908 c-175 -1049 -321 -1915 -325 -1925 -4 -9 -38 218
-75 505 -284 2170 -349 2654 -368 2733 -68 287 -219 498 -443 621 -66 36 -77
38 -255 58 -183 21 -189 21 -381 4z"/>
<path d="M2937 11792 c-36 -38 -53 -88 -36 -108 7 -8 22 -14 33 -12 18 3 21 9
19 46 -1 35 1 42 17 42 29 0 31 -13 10 -68 -21 -55 -18 -77 11 -92 48 -26 93
-1 105 58 4 18 12 32 19 32 17 0 45 33 45 53 0 22 -18 31 -35 17 -11 -9 -25
-4 -67 24 -64 43 -86 45 -121 8z m118 -83 c11 -16 -4 -59 -20 -59 -15 0 -20
26 -9 54 7 18 20 21 29 5z"/>
<path d="M6354 11716 c-25 -25 -34 -43 -34 -67 0 -45 30 -93 69 -109 28 -11
34 -11 48 3 20 19 6 42 -32 51 -30 8 -42 43 -22 63 14 14 19 10 52 -36 20 -28
43 -51 50 -51 20 0 55 49 55 77 0 32 -26 80 -49 93 -11 5 -38 10 -61 10 -34 0
-48 -6 -76 -34z m132 -31 c4 -8 3 -23 -1 -32 -6 -16 -8 -15 -25 7 -11 14 -20
28 -20 33 0 14 41 7 46 -8z"/>
<path d="M13418 11706 c-427 -6 -779 -14 -782 -17 -6 -5 265 -2812 279 -2895
l5 -31 98 -5 c252 -13 429 -151 464 -360 8 -49 -4 -519 -56 -2088 -36 -1114
-66 -2052 -66 -2084 0 -33 -4 -56 -8 -50 -5 5 -478 1667 -1052 3694 -574 2027
-1046 3688 -1049 3691 -8 9 -1619 34 -1628 26 -6 -6 129 -2568 143 -2722 l6
-61 79 -17 c107 -24 206 -76 263 -137 65 -69 89 -127 93 -225 6 -113 -95
-3479 -108 -3594 -13 -119 -42 -246 -70 -306 -12 -25 -40 -61 -64 -80 -44 -36
-201 -115 -271 -135 l-40 -12 -17 -377 c-10 -207 -17 -397 -17 -424 l0 -47
933 6 c512 4 934 9 936 11 3 2 13 149 22 326 9 177 20 368 23 423 l6 102 -46
11 c-78 20 -314 111 -412 159 -152 75 -207 154 -233 334 -10 71 -5 245 40
1253 58 1316 61 1379 71 1368 4 -4 405 -910 891 -2011 l883 -2004 116 6 c63 3
376 11 695 16 319 6 604 13 633 16 47 5 52 8 52 30 0 13 -77 1049 -170 2302
-94 1252 -168 2293 -165 2312 31 182 232 308 427 268 l66 -14 6 100 c3 56 15
772 26 1591 11 820 22 1529 23 1578 l3 87 -125 -2 c-69 -1 -476 -6 -903 -12z"/>
<path d="M2812 11593 c-21 -8 -43 -61 -36 -88 5 -20 3 -24 -9 -19 -18 7 -52
-49 -43 -72 6 -16 36 -19 36 -4 0 18 34 11 72 -15 26 -17 35 -30 31 -43 -3
-12 2 -22 11 -25 11 -5 24 6 43 35 36 58 35 73 -3 74 -45 1 -94 33 -94 61 0
13 7 26 16 30 24 9 83 -24 94 -52 14 -38 35 -30 63 23 30 58 23 84 -16 63 -22
-12 -30 -10 -69 13 -43 25 -69 30 -96 19z"/>
<path d="M6538 11433 c-47 -30 -61 -89 -33 -143 24 -47 79 -66 104 -36 17 20
3 46 -25 46 -36 0 -48 32 -23 64 24 30 69 35 90 10 11 -14 11 -18 -4 -29 -40
-29 0 -78 41 -49 38 27 24 101 -28 141 -22 18 -90 15 -122 -4z"/>
<path d="M2602 11278 c-14 -14 -16 -64 -2 -73 5 -3 9 -26 8 -50 -3 -49 21 -85
56 -85 12 0 27 -9 34 -21 10 -16 20 -20 42 -16 22 5 29 2 33 -13 7 -26 33 -35
62 -22 57 26 87 160 45 202 -39 39 -81 20 -106 -47 -21 -56 -33 -75 -45 -67
-5 3 -2 18 6 34 24 46 19 85 -12 110 -26 21 -36 21 -78 4 -18 -7 -18 -6 -6 9
25 32 -8 64 -37 35z m108 -117 c0 -15 -29 -33 -45 -27 -18 7 -20 43 -2 49 14
5 47 -10 47 -22z m140 -37 c0 -33 -17 -64 -35 -64 -18 0 -19 16 -4 59 13 38
39 42 39 5z"/>
<path d="M6785 11275 c-3 -8 -7 -21 -9 -28 -4 -12 -127 -57 -158 -57 -9 0 -18
7 -22 15 -3 9 -12 12 -22 8 -17 -6 -16 -42 5 -95 12 -32 40 -37 48 -9 6 25 88
48 109 30 8 -6 14 -18 14 -26 0 -21 -67 -46 -107 -38 -42 8 -47 -5 -29 -65 9
-32 19 -46 34 -48 15 -2 21 3 24 19 2 18 17 28 62 46 33 12 63 28 68 35 12 17
1 68 -18 89 -14 16 -13 18 20 29 40 13 43 24 22 75 -16 37 -33 45 -41 20z"/>
<path d="M2571 10986 c-12 -13 -25 -42 -28 -65 -5 -36 -2 -44 30 -76 30 -30
42 -35 82 -35 64 0 105 39 105 100 0 50 -15 80 -39 80 -22 0 -33 -21 -20 -41
17 -27 10 -67 -12 -74 -31 -10 -34 0 -21 62 6 30 9 60 6 64 -3 5 -22 9 -43 9
-27 0 -44 -7 -60 -24z m49 -66 c0 -19 -5 -30 -14 -30 -19 0 -29 30 -15 46 18
22 29 16 29 -16z"/>
<path d="M6705 10951 c-70 -29 -79 -132 -17 -182 55 -43 162 -8 175 58 7 39
-11 90 -40 113 -27 21 -81 26 -118 11z m99 -67 c9 -8 16 -18 16 -22 -1 -44
-108 -67 -124 -27 -18 47 70 87 108 49z"/>
<path d="M2516 10774 c-3 -9 -6 -36 -6 -60 0 -37 3 -44 20 -44 11 0 20 5 20
11 0 8 12 9 38 4 62 -12 70 -22 21 -29 -92 -14 -97 -16 -104 -43 -8 -34 6 -47
80 -69 l60 -17 -44 -10 c-37 -7 -47 -6 -57 7 -24 33 -42 19 -46 -36 -6 -67 13
-96 40 -61 11 15 36 26 72 33 89 18 100 25 100 64 0 33 -1 34 -64 52 -36 10
-63 20 -60 23 2 2 29 8 60 12 31 4 58 9 60 11 2 2 5 19 6 38 3 33 2 34 -72 65
-45 19 -76 39 -78 48 -4 22 -38 22 -46 1z"/>
<path d="M6733 10705 c-39 -17 -53 -42 -53 -98 0 -49 30 -87 68 -87 35 0 40
30 9 52 -48 35 -29 78 35 78 27 0 40 -5 48 -20 12 -23 6 -40 -15 -40 -19 0
-26 -25 -11 -46 22 -29 63 -11 77 34 16 54 -7 107 -55 127 -43 18 -62 18 -103
0z"/>
<path d="M6735 10476 c-61 -26 -75 -118 -26 -167 25 -24 38 -29 80 -29 62 0
99 28 108 82 8 51 -12 93 -52 112 -40 19 -70 20 -110 2z m105 -71 c31 -37 -23
-78 -77 -59 -31 10 -44 51 -21 65 21 14 85 10 98 -6z"/>
<path d="M2574 10266 c-34 -15 -64 -51 -64 -77 0 -9 9 -27 20 -41 10 -14 15
-29 11 -34 -5 -5 -6 -26 -4 -47 5 -32 9 -38 27 -35 13 2 20 10 20 20 -1 12 8
19 30 23 17 2 56 9 86 14 50 9 56 8 72 -12 12 -16 19 -18 30 -10 22 18 1 143
-24 143 -13 0 -18 -8 -18 -25 0 -18 -5 -25 -20 -25 -17 0 -19 4 -14 26 18 69
-70 115 -152 80z m104 -83 c3 -17 -4 -26 -24 -33 -39 -15 -78 -9 -82 13 -6 31
18 48 62 45 34 -2 42 -7 44 -25z"/>
<path d="M6675 10248 c-2 -7 -6 -36 -9 -64 -5 -42 -3 -53 10 -58 20 -8 34 1
34 20 0 17 -12 17 116 -2 58 -8 107 -14 109 -12 2 2 6 24 10 51 7 44 6 47 -14
47 -12 0 -24 -7 -28 -16 -5 -14 -16 -15 -67 -9 -101 11 -116 16 -116 36 0 22
-38 27 -45 7z"/>
<path d="M6650 10073 c-17 -21 -21 -37 -17 -65 3 -25 0 -41 -9 -49 -17 -14
-19 -65 -2 -75 6 -4 17 1 24 11 12 16 19 17 72 5 90 -19 111 -5 127 83 12 63
-38 107 -65 57 -8 -16 -6 -24 11 -41 19 -19 20 -23 6 -36 -24 -24 -37 -6 -37
48 0 83 -64 120 -110 62z m68 -76 c3 -23 0 -28 -15 -25 -11 2 -19 14 -21 31
-3 23 0 28 15 25 11 -2 19 -14 21 -31z"/>
<path d="M2618 10004 c-15 -8 -32 -23 -38 -34 -24 -44 -2 -128 39 -150 48 -25
139 1 160 46 22 50 3 121 -38 144 -28 14 -91 12 -123 -6z m110 -56 c21 -21 13
-47 -18 -63 -52 -27 -96 -11 -88 32 6 34 81 56 106 31z"/>
<path d="M6603 9840 c-30 -12 -46 -47 -40 -86 4 -24 2 -31 -7 -28 -8 3 -18
-11 -26 -36 -12 -36 -12 -43 1 -51 9 -6 18 -3 26 8 12 15 21 13 113 -21 55
-21 106 -36 113 -33 7 3 19 24 26 47 10 35 10 44 -1 51 -8 6 -19 2 -30 -12
-11 -13 -24 -19 -34 -15 -13 5 -13 9 5 32 39 50 22 107 -43 138 -37 18 -69 19
-103 6z m68 -60 c5 0 18 -9 29 -20 16 -16 18 -25 10 -40 -21 -40 -110 -11
-110 35 0 17 30 36 48 30 8 -3 18 -5 23 -5z"/>
<path d="M2898 9572 c-58 -39 -42 -96 16 -58 19 12 26 13 35 3 5 -7 7 -18 3
-24 -9 -13 -118 -83 -130 -83 -5 0 -16 10 -24 22 -16 24 -48 19 -48 -8 0 -27
84 -154 102 -154 25 0 32 19 17 46 -7 13 -10 26 -8 28 2 2 33 22 69 44 48 31
67 38 77 30 19 -15 16 -23 -12 -38 -29 -16 -31 -53 -3 -58 18 -4 98 45 98 60
0 5 -17 35 -38 66 -21 31 -51 78 -66 105 -15 26 -33 47 -39 46 -7 -1 -29 -13
-49 -27z"/>
<path d="M6500 9588 c-31 -16 -70 -74 -70 -103 0 -30 24 -59 43 -52 10 4 17
21 19 48 3 45 28 73 48 53 8 -8 3 -27 -17 -68 -24 -49 -25 -58 -13 -67 50 -32
105 -14 134 44 16 34 17 42 5 74 -24 62 -98 97 -149 71z m107 -123 c-7 -17
-34 -31 -44 -22 -3 4 2 18 12 33 18 28 43 20 32 -11z"/>
<path d="M2979 9273 c-32 -19 -59 -63 -59 -93 0 -34 37 -86 70 -100 38 -16 71
-7 115 31 30 27 35 37 35 74 0 60 -42 105 -97 105 -21 0 -50 -8 -64 -17z m106
-64 c11 -35 -48 -86 -85 -74 -46 15 -2 95 51 95 19 0 30 -6 34 -21z"/>
<path d="M6258 9155 c-37 -41 -43 -71 -15 -69 18 2 75 -71 64 -82 -3 -3 -23 4
-46 16 -27 13 -41 27 -41 40 0 11 -7 20 -15 20 -17 0 -84 -69 -85 -88 0 -17
29 -27 42 -14 10 10 116 -20 167 -48 34 -18 24 -54 -14 -55 -23 0 -30 -5 -30
-19 0 -48 75 -45 100 4 23 45 19 69 -31 170 -29 61 -43 102 -40 116 3 13 0 27
-8 33 -12 10 -21 5 -48 -24z"/>
<path d="M3165 9130 c-4 -6 -1 -18 6 -26 10 -12 6 -22 -26 -54 -26 -27 -42
-37 -49 -30 -15 15 -33 12 -40 -6 -8 -22 68 -99 90 -90 8 3 14 15 12 25 -4 23
48 81 73 81 26 0 42 -25 31 -47 -16 -30 -53 -58 -75 -58 -36 0 -31 -32 9 -67
47 -41 59 -41 59 -1 1 24 11 43 38 71 58 59 47 119 -25 137 -16 4 -25 11 -22
17 8 13 -36 58 -57 58 -10 0 -21 -5 -24 -10z"/>
<path d="M5997 8992 c-36 -38 -36 -63 1 -60 22 3 38 -9 85 -61 43 -46 56 -66
48 -74 -6 -6 -11 -17 -11 -24 0 -24 35 -13 80 27 42 37 44 40 28 56 -13 13
-20 15 -30 6 -11 -8 -30 8 -88 74 -41 46 -77 84 -80 84 -4 0 -18 -13 -33 -28z"/>
<path d="M3370 8950 c-12 -8 -13 -13 -3 -28 9 -16 7 -36 -9 -98 -22 -88 -31
-104 -60 -104 -16 0 -19 5 -14 24 7 30 -19 50 -46 35 -25 -13 -22 -43 6 -76
39 -46 93 -39 199 26 58 36 92 51 105 47 20 -7 48 16 38 32 -3 5 -23 21 -45
36 -41 29 -66 27 -58 -5 3 -13 -7 -25 -35 -44 -22 -15 -42 -25 -44 -23 -2 3 4
23 13 46 10 27 22 42 33 42 34 0 30 28 -8 58 -51 40 -56 42 -72 32z"/>
<path d="M5940 8853 c-8 -3 -27 -17 -42 -31 -22 -21 -28 -35 -28 -70 0 -37 6
-50 34 -78 27 -27 42 -34 72 -34 70 0 138 80 100 118 -12 13 -18 13 -30 2 -9
-7 -16 -20 -16 -29 0 -37 -46 -55 -69 -27 -10 12 -4 20 33 45 25 17 47 35 51
40 21 35 -56 82 -105 64z m35 -52 c5 -9 -31 -41 -47 -41 -12 0 -9 25 4 38 14
14 35 16 43 3z"/>
<path d="M3640 8835 c-7 -9 -10 -27 -7 -44 5 -26 2 -32 -30 -51 -27 -16 -33
-24 -24 -33 17 -17 97 25 115 62 28 54 -18 109 -54 66z"/>
<path d="M5733 8720 c-13 -5 -31 -23 -42 -40 -11 -19 -21 -26 -23 -19 -3 10
-13 9 -42 -5 -43 -20 -47 -51 -6 -51 20 0 30 -10 50 -49 18 -35 22 -50 13 -53
-17 -6 -16 -32 1 -39 14 -5 92 31 102 47 7 12 -15 41 -27 34 -4 -3 -18 13 -29
35 -40 79 9 113 56 39 17 -28 22 -45 16 -51 -12 -12 -5 -38 11 -38 6 0 30 10
54 21 34 17 43 26 41 43 -2 15 -9 20 -25 18 -17 -2 -27 6 -43 38 -24 47 -54
80 -72 79 -7 0 -23 -4 -35 -9z"/>
<path d="M3722 8693 c-40 -35 -38 -61 8 -104 32 -31 40 -43 31 -52 -15 -15
-40 0 -61 38 -22 40 -36 41 -55 5 -17 -32 -12 -55 10 -46 7 2 23 -6 36 -20 52
-55 139 -36 139 31 0 27 -7 39 -35 61 -37 28 -47 58 -18 52 9 -2 24 -16 33
-32 22 -41 36 -42 55 -6 18 35 12 54 -16 45 -10 -4 -19 -2 -19 4 0 12 -52 41
-73 41 -8 0 -24 -8 -35 -17z"/>
<path d="M4055 8618 c-35 -27 -64 -92 -65 -141 0 -78 50 -127 130 -127 53 0
75 12 88 50 9 24 8 33 -5 45 -19 20 -35 15 -48 -13 -14 -30 -41 -37 -72 -17
-23 16 -25 21 -19 64 7 54 34 95 65 99 32 5 51 -16 51 -55 0 -31 2 -34 26 -31
22 2 29 11 40 48 8 25 14 48 14 51 0 14 -33 19 -46 8 -10 -8 -14 -8 -14 0 0
15 -54 41 -88 41 -16 0 -42 -10 -57 -22z"/>
<path d="M5250 8598 c-19 -5 -38 -15 -42 -21 -11 -18 3 -38 22 -32 15 5 21 -4
35 -52 27 -94 30 -122 11 -129 -19 -7 -21 -33 -3 -40 7 -2 38 2 68 9 41 11 55
19 57 35 2 15 -3 21 -19 24 -24 3 -26 6 -60 136 -11 45 -24 82 -28 81 -3 0
-22 -5 -41 -11z"/>
<path d="M5473 8599 c-40 -12 -73 -53 -73 -91 0 -44 29 -97 61 -113 36 -19 53
-19 96 2 47 22 65 65 51 120 -17 69 -69 100 -135 82z m61 -71 c31 -45 10 -106
-32 -91 -20 8 -44 63 -38 89 8 31 49 32 70 2z"/>
<path d="M4270 8570 c0 -10 7 -23 16 -28 14 -8 15 -17 2 -93 -12 -75 -16 -84
-36 -87 -17 -3 -22 -9 -20 -25 2 -18 12 -23 57 -30 58 -8 81 4 59 30 -15 18
-3 95 17 109 9 7 24 10 32 7 20 -8 11 -103 -12 -115 -16 -9 -20 -34 -7 -41 4
-3 31 -8 60 -12 45 -6 52 -5 52 10 0 10 -7 23 -16 29 -14 10 -14 20 -5 71 9
49 8 62 -5 83 -13 20 -22 23 -61 20 l-45 -3 7 41 6 41 -38 7 c-57 9 -63 8 -63
-14z"/>
<path d="M5039 8471 c-33 -34 -39 -92 -14 -140 39 -76 170 -59 191 24 10 39
-5 95 -31 121 -37 36 -107 34 -146 -5z m98 -33 c31 -40 20 -108 -17 -108 -39
0 -67 79 -38 108 16 16 43 15 55 0z"/>
<path d="M4565 8456 c-50 -50 -40 -152 17 -182 44 -23 106 -13 135 21 17 20
23 39 23 76 0 42 -5 55 -29 80 -39 39 -109 41 -146 5z m103 -38 c27 -27 7
-108 -26 -108 -28 0 -42 21 -42 60 0 39 14 60 40 60 9 0 21 -5 28 -12z"/>
<path d="M4831 8467 c-65 -38 -66 -162 -2 -197 49 -26 136 1 147 45 13 50 -23
61 -61 18 -20 -23 -27 -26 -42 -17 -30 18 -39 59 -19 88 20 31 42 34 49 5 4
-16 12 -20 34 -17 32 3 42 32 20 62 -17 24 -93 31 -126 13z"/>
<path d="M3690 7865 l55 -355 115 6 c63 4 117 8 118 10 5 3 -17 472 -24 530
-5 40 -6 41 -62 59 -46 14 -126 47 -247 101 -6 3 13 -148 45 -351z"/>
<path d="M19795 7598 c-176 -33 -330 -189 -343 -345 -15 -184 135 -439 447
-756 l96 -98 -130 5 c-71 3 -214 8 -317 11 l-188 6 0 -29 c0 -48 31 -325 37
-335 9 -15 326 -1 413 18 212 46 377 127 511 253 103 96 168 184 230 307 130
261 100 514 -85 712 -70 75 -193 164 -281 202 -120 53 -271 72 -390 49z"/>
<path d="M18933 3076 c-265 -17 -483 -33 -485 -36 -3 -4 8 -261 21 -477 1 -7
13 -16 29 -19 15 -4 55 -20 90 -36 67 -31 86 -56 95 -123 3 -22 3 -285 -1
-585 l-7 -544 -505 774 -506 775 -309 -3 c-171 -2 -323 -6 -339 -9 -28 -5 -28
-5 -22 -67 3 -33 8 -121 12 -193 l7 -133 46 0 c65 0 111 -27 138 -81 21 -43
22 -68 43 -791 13 -410 19 -764 15 -785 -9 -50 -71 -109 -130 -125 -44 -12
-44 -13 -40 -48 3 -19 10 -136 16 -260 6 -124 12 -226 13 -228 3 -2 870 -31
872 -29 2 3 -48 562 -51 564 -1 2 -41 10 -89 18 -48 9 -101 22 -118 31 -58 30
-58 28 -78 743 -11 361 -20 665 -20 676 0 11 3 15 9 10 5 -6 204 -426 441
-935 238 -509 443 -945 455 -970 l23 -45 307 -23 c169 -13 310 -21 313 -17 3
3 -7 512 -22 1133 -25 1024 -26 1131 -12 1170 35 97 81 128 212 139 l74 6 0
76 c0 42 3 167 7 279 5 170 4 202 -8 201 -8 -1 -231 -16 -496 -33z"/>
<path d="M1105 3049 c-533 -56 -853 -321 -995 -826 -87 -309 -115 -770 -61
-1008 97 -430 361 -798 682 -949 143 -68 254 -84 452 -67 301 26 497 104 583
233 l32 47 22 -142 c12 -78 24 -152 27 -164 l5 -23 243 0 c133 0 264 3 290 7
l48 6 -6 645 c-4 355 -9 647 -11 650 -2 2 -110 6 -240 9 l-236 6 0 -114 c0
-142 -19 -230 -70 -338 -72 -149 -199 -252 -375 -303 -68 -19 -103 -23 -235
-22 -113 0 -174 5 -225 17 -296 74 -462 303 -504 695 -15 137 -14 209 4 345
36 278 151 522 298 635 145 112 340 140 486 70 141 -68 243 -260 276 -520 l6
-48 82 1 c134 1 775 34 781 39 3 3 -13 208 -34 455 -22 248 -40 455 -40 461 0
8 -44 14 -137 18 -76 4 -156 9 -179 12 l-41 5 -7 -48 c-3 -26 -11 -77 -17
-112 l-12 -64 -33 72 c-114 247 -430 365 -859 320z"/>
<path d="M2928 3013 c-236 -3 -308 -6 -308 -16 0 -6 -7 -147 -15 -312 -8 -165
-15 -321 -15 -346 l0 -47 47 -12 c60 -15 139 -48 153 -65 5 -6 19 -54 30 -106
19 -84 23 -170 40 -794 11 -385 17 -713 14 -728 -13 -62 -136 -137 -199 -121
-22 5 -22 3 -35 -151 -7 -85 -11 -158 -8 -160 7 -8 1048 -29 1055 -22 5 6 -59
400 -73 447 -3 13 -17 15 -69 12 -128 -8 -203 35 -240 139 -18 49 -20 88 -23
397 -2 188 1 342 5 342 4 0 190 7 413 15 223 8 434 15 470 15 l66 0 31 -397
c33 -433 32 -466 -17 -518 -45 -48 -91 -57 -243 -48 -133 8 -137 8 -137 -12 0
-11 -9 -117 -20 -235 -10 -118 -18 -215 -17 -216 1 -1 287 -5 635 -9 l632 -7
-1 28 c0 16 -13 126 -27 244 l-27 215 -122 -4 c-169 -4 -214 12 -255 92 -19
38 -19 44 2 910 13 532 25 880 32 893 13 28 74 61 126 70 51 8 49 -1 58 257
l6 187 -39 1 c-21 0 -237 15 -481 32 l-442 33 5 -126 c3 -69 8 -166 11 -215
l5 -90 101 0 c96 0 100 -1 123 -27 34 -40 43 -106 49 -375 l5 -243 -470 0
-471 0 4 124 c3 107 6 127 23 146 33 37 95 62 158 65 32 2 60 5 62 7 1 2 6
168 10 371 l7 367 -158 -2 c-88 -2 -297 -4 -466 -5z"/>
<path d="M21505 2828 c3 -57 8 -169 11 -249 l6 -147 76 5 c149 10 192 -20 211
-146 5 -36 24 -423 42 -860 34 -859 34 -870 -17 -930 -31 -37 -85 -59 -167
-67 -76 -8 -71 2 -83 -165 l-6 -97 163 -6 c90 -3 488 -10 884 -16 396 -5 805
-13 908 -16 l188 -6 -6 113 c-3 63 -8 279 -11 482 l-6 367 -292 0 -292 0 1
-208 c0 -220 -6 -261 -48 -300 -49 -46 -92 -52 -363 -52 l-254 0 0 23 c0 12
-20 392 -46 844 -51 917 -51 910 11 968 33 32 76 49 154 61 l43 7 -6 66 c-3
36 -8 134 -12 218 l-7 152 -71 5 c-39 4 -255 15 -481 26 -225 11 -438 22 -473
25 l-63 6 6 -103z"/>
<path d="M12533 2828 c4 -29 9 -98 12 -153 3 -55 8 -117 11 -137 l6 -38 55 0
c49 0 59 -4 88 -33 60 -60 55 -13 90 -952 13 -363 27 -697 30 -741 7 -99 -8
-204 -38 -263 -26 -51 -99 -106 -164 -124 l-43 -11 0 -137 0 -137 123 -6 c223
-11 2019 -57 2024 -52 4 4 -178 1106 -203 1229 l-6 27 -171 -2 c-133 -2 -171
-6 -169 -16 1 -7 5 -99 8 -205 9 -284 -4 -333 -106 -381 -42 -20 -64 -21 -371
-24 l-327 -3 -6 168 c-3 92 -13 459 -22 814 -17 681 -15 737 26 774 29 26 105
45 238 57 l124 12 -7 175 c-4 97 -8 177 -9 177 -1 2 -1109 34 -1160 34 l-38 0
5 -52z"/>
<path d="M22870 2818 c1 -7 13 -103 28 -213 l27 -199 50 -3 c80 -5 111 -20
157 -76 23 -29 75 -88 114 -132 39 -44 233 -279 431 -523 l360 -442 7 -92 c3
-50 6 -224 6 -386 0 -284 -1 -296 -22 -330 -24 -39 -85 -71 -135 -72 l-33 0 0
-131 0 -131 538 7 c295 4 537 8 538 9 0 0 -2 83 -4 182 l-4 182 -37 6 c-60 10
-136 60 -156 102 -16 35 -17 63 -11 368 l8 330 153 380 c84 210 158 398 165
419 6 20 34 61 61 91 62 68 126 96 231 104 l78 5 0 228 c0 126 -1 229 -3 229
-1 0 -198 11 -437 25 -239 14 -456 25 -482 25 l-48 0 0 -160 0 -160 32 0 c17
0 61 -5 97 -11 79 -14 127 -53 117 -94 -6 -23 -442 -720 -450 -720 -10 0 -658
730 -672 756 -8 17 -14 40 -12 52 4 31 63 67 110 67 l39 0 -6 123 c-3 67 -8
136 -11 153 l-4 31 -248 6 c-396 11 -572 9 -572 -5z"/>
<path d="M20285 2808 c-352 -5 -655 -11 -674 -14 l-34 -5 7 -106 c3 -59 7
-108 9 -109 1 -2 30 -7 64 -13 79 -12 98 -25 122 -81 18 -44 18 -75 12 -995
-6 -905 -7 -951 -25 -981 -27 -45 -72 -68 -133 -69 l-53 0 0 -152 c0 -84 1
-154 3 -154 4 -3 1902 -26 1905 -24 1 1 -11 217 -28 481 -16 263 -30 493 -30
509 l0 31 -157 -3 c-87 -2 -181 -6 -210 -9 l-51 -5 -4 -192 c-3 -151 -7 -200
-20 -229 -22 -50 -70 -78 -133 -78 -47 0 -584 54 -652 65 l-33 6 0 324 c0 179
1 325 3 326 1 0 78 6 171 13 255 19 287 7 294 -109 l4 -65 84 0 c45 0 85 3 87
8 3 4 8 147 12 318 l7 312 -114 7 c-62 4 -140 8 -173 9 l-60 1 -7 -63 c-9 -85
-23 -124 -54 -153 -24 -22 -34 -24 -127 -24 l-102 0 -3 409 c-2 298 1 412 9
417 11 7 675 26 734 21 17 -2 49 -10 73 -18 60 -22 72 -51 72 -172 l0 -100
118 -4 c64 -2 119 -3 122 -1 2 3 8 93 12 201 3 108 9 261 13 340 l6 142 -213
-2 c-117 -1 -501 -5 -853 -10z"/>
<path d="M5957 2784 c-441 -98 -762 -463 -842 -959 -20 -119 -19 -400 0 -552
51 -390 193 -725 400 -942 212 -222 454 -312 795 -298 647 28 1001 250 1134
710 81 280 96 711 35 1011 -110 545 -443 895 -968 1018 -118 27 -454 35 -554
12z m568 -361 c175 -43 321 -185 404 -390 136 -334 145 -923 20 -1268 -114
-315 -365 -438 -625 -307 -352 178 -552 632 -514 1169 32 447 130 683 324 774
105 49 250 58 391 22z"/>
<path d="M15570 2751 c-369 -82 -671 -375 -803 -782 -117 -358 -84 -829 83
-1176 114 -235 304 -434 518 -542 78 -39 222 -88 316 -107 108 -21 351 -29
495 -15 440 43 656 212 745 581 40 167 50 283 50 580 0 209 -4 303 -17 393
-90 606 -373 950 -872 1059 -136 29 -402 34 -515 9z m373 -366 c213 -45 370
-229 440 -515 47 -191 73 -478 63 -690 -22 -441 -154 -577 -581 -597 -94 -4
-134 -2 -185 11 -215 56 -348 255 -396 592 -22 160 -14 547 14 705 48 262 128
401 268 466 91 41 256 54 377 28z"/>
<path d="M9570 2558 c0 -95 -3 -197 -7 -226 l-6 -53 -31 63 c-20 41 -57 89
-106 139 -87 87 -192 145 -325 180 -208 53 -562 26 -781 -61 -307 -122 -468
-369 -528 -811 -41 -291 -45 -640 -11 -799 56 -257 167 -478 322 -641 119
-125 224 -193 368 -239 60 -20 90 -23 210 -22 320 2 589 78 711 200 29 29 46
39 49 30 2 -7 13 -48 24 -91 11 -43 21 -81 24 -83 2 -2 120 4 263 13 l259 18
0 467 c0 256 -3 469 -6 473 -7 6 -379 -8 -534 -21 l-71 -5 -11 -58 c-27 -142
-129 -279 -253 -339 -103 -50 -178 -66 -320 -65 -249 0 -405 72 -512 237 -120
185 -161 611 -88 916 63 260 233 436 470 486 50 10 112 15 185 12 101 -3 116
-6 177 -36 80 -39 177 -138 236 -239 41 -71 105 -225 117 -280 5 -27 11 -33
33 -33 15 -1 131 -11 257 -24 127 -13 232 -22 234 -20 4 4 -108 1046 -113
1051 -1 2 -38 7 -82 13 -43 5 -96 12 -116 15 l-38 5 0 -172z"/>
<path d="M11225 2709 c-531 -50 -932 -428 -1054 -994 -57 -261 -48 -671 19
-935 108 -423 376 -666 815 -739 391 -66 770 -12 992 140 194 134 324 361 412
721 33 137 74 368 92 528 16 140 6 397 -19 515 -76 353 -288 589 -629 701
-164 53 -441 81 -628 63z m210 -350 c100 -22 194 -76 275 -158 85 -85 134
-173 172 -306 21 -72 23 -101 23 -280 0 -186 -3 -210 -32 -351 -94 -442 -236
-675 -464 -764 -210 -81 -385 -47 -536 106 -123 125 -212 339 -243 587 -19
149 -8 504 20 632 52 240 159 408 310 485 119 61 321 82 475 49z"/>
</g>
</svg>
